<svg  viewBox="0 0 512 512"  xmlns="http://www.w3.org/2000/svg">
    <path d="m249.148438 364.863281-10.875 10.605469-46.207032-40.957031-48.3125 40.957031-47.792968-40.957031-47.257813 40.957031-10.8125-10.675781c-19.625-19.378907-30.671875-45.808594-30.671875-73.386719v-148.046875c0-75.402344 61.128906-136.53125 136.535156-136.53125 75.402344 0 136.53125 61.128906 136.53125 136.53125v147.660156c0 27.804688-11.226562 54.433594-31.136718 73.84375zm0 0" fill="#d7e9ff"/>
    <g fill="#0e65e5">
        <path d="m238.492188 384.785156-46.53125-41.242187-48.230469 40.894531-47.742188-40.917969-47.582031 41.242188-15.3125-15.113281c-20.777344-20.523438-32.699219-49.039063-32.699219-78.246094v-148.042969c0-79.046875 64.3125-143.359375 143.363281-143.359375 79.046876 0 143.359376 64.3125 143.359376 143.359375v147.664063c0 29.464843-12.101563 58.160156-33.199219 78.726562zm-142.554688-59.289062 47.839844 41.003906 48.386718-41.023438 45.886719 40.671876 6.332031-6.171876c18.476563-18.015624 29.078126-43.148437 29.078126-68.953124v-147.664063c0-71.519531-58.1875-129.707031-129.707032-129.707031-71.519531 0-129.707031 58.1875-129.707031 129.707031v148.042969c0 25.582031 10.441406 50.558594 28.640625 68.53125l6.320312 6.234375zm153.210938 39.367187h.070312zm0 0"/>
        <path d="m238.273438 320.851562-46.207032-40.957031-48.3125 40.957031-47.792968-40.957031-47.257813 40.957031-10.8125-10.675781c-19.625-19.375-30.671875-45.804687-30.671875-73.382812v54.613281c0 27.578125 11.046875 54.007812 30.671875 73.386719l10.8125 10.675781 47.257813-40.957031 47.792968 40.957031 48.3125-40.957031 46.207032 40.957031 10.878906-10.605469c19.910156-19.410156 31.136718-46.035156 31.136718-73.839843v-54.613282c0 27.804688-11.226562 54.429688-31.136718 73.839844zm0 0"/>
        <path d="m48.703125 382.292969c-1.734375 0-3.46875-.660157-4.792969-1.96875l-10.816406-10.675781c-20.78125-20.519532-32.703125-49.039063-32.703125-78.246094v-54.613282c0-3.769531 3.058594-6.824218 6.828125-6.824218s6.828125 3.054687 6.828125 6.824218c0 25.582032 10.441406 50.558594 28.644531 68.53125l6.320313 6.234376 42.484375-36.824219c2.546875-2.210938 6.339844-2.21875 8.910156-.023438l43.371094 37.175781 43.871094-37.195312c2.589843-2.195312 6.402343-2.152344 8.9375.097656l41.464843 36.75 6.328125-6.171875c18.476563-18.015625 29.078125-43.148437 29.078125-68.953125 0-3.769531 3.058594-6.824218 6.824219-6.824218 3.769531 0 6.828125 3.054687 6.828125 6.824218v54.613282c0 29.464843-12.101563 58.160156-33.199219 78.726562l-10.878906 10.601562c-2.566406 2.496094-6.621094 2.589844-9.292969.222657l-41.78125-37.039063-43.796875 37.132813c-2.5625 2.167969-6.3125 2.15625-8.859375-.023438l-43.316406-37.128906-42.816406 37.105469c-1.277344 1.121094-2.871094 1.671875-4.464844 1.671875zm47.257813-54.613281c1.585937 0 3.164062.546874 4.445312 1.640624l43.371094 37.175782 43.871094-37.195313c2.589843-2.195312 6.402343-2.152343 8.9375.097657l41.464843 36.75 6.328125-6.171876c18.476563-18.015624 29.078125-43.148437 29.078125-68.953124v-1.640626c-5.1875 9.449219-11.75 18.15625-19.546875 25.757813l-10.878906 10.601563c-2.566406 2.496093-6.621094 2.589843-9.292969.222656l-41.78125-37.039063-43.796875 37.132813c-2.5625 2.164062-6.3125 2.160156-8.859375-.023438l-43.316406-37.128906-42.816406 37.105469c-2.691407 2.328125-6.726563 2.203125-9.265625-.304688l-10.8125-10.675781c-7.578125-7.480469-13.980469-16.023438-19.050782-25.28125v1.648438c0 25.582031 10.441407 50.558593 28.644532 68.53125l6.320312 6.234374 42.484375-36.820312c1.28125-1.105469 2.878907-1.664062 4.472657-1.664062zm0 0"/>
    </g>
    <path d="m225.671875 133.121094c0 16.964844-13.753906 30.71875-30.71875 30.71875s-30.71875-13.753906-30.71875-30.71875c0-16.96875 13.753906-30.722656 30.71875-30.722656s30.71875 13.753906 30.71875 30.722656zm0 0" fill="#94c1ff"/>
    <path d="m194.953125 170.667969c-20.703125 0-37.546875-16.847657-37.546875-37.546875 0-20.703125 16.84375-37.546875 37.546875-37.546875s37.546875 16.84375 37.546875 37.546875c0 20.699218-16.84375 37.546875-37.546875 37.546875zm0-61.441407c-13.171875 0-23.894531 10.722657-23.894531 23.894532s10.722656 23.890625 23.894531 23.890625 23.894531-10.71875 23.894531-23.890625-10.722656-23.894532-23.894531-23.894532zm0 0" fill="#0e65e5"/>
    <path d="m212.019531 153.601562c0 9.425782-7.640625 17.066407-17.066406 17.066407s-17.066406-7.640625-17.066406-17.066407c0-9.425781 7.640625-17.066406 17.066406-17.066406s17.066406 7.640625 17.066406 17.066406zm0 0" fill="#fff"/>
    <path d="m194.953125 177.492188c-13.171875 0-23.894531-10.71875-23.894531-23.890626 0-13.171874 10.722656-23.894531 23.894531-23.894531s23.894531 10.722657 23.894531 23.894531c0 13.171876-10.722656 23.890626-23.894531 23.890626zm0-34.132813c-5.644531 0-10.242187 4.59375-10.242187 10.242187 0 5.644532 4.597656 10.238282 10.242187 10.238282s10.238281-4.59375 10.238281-10.238282c0-5.648437-4.59375-10.242187-10.238281-10.242187zm0 0" fill="#0e65e5"/>
    <path d="m123.273438 133.121094c0 16.964844-13.753907 30.71875-30.722657 30.71875-16.964843 0-30.71875-13.753906-30.71875-30.71875 0-16.96875 13.753907-30.722656 30.71875-30.722656 16.96875 0 30.722657 13.753906 30.722657 30.722656zm0 0" fill="#94c1ff"/>
    <path d="m92.550781 170.667969c-20.699219 0-37.542969-16.847657-37.542969-37.546875 0-20.703125 16.84375-37.546875 37.542969-37.546875 20.703125 0 37.546875 16.84375 37.546875 37.546875 0 20.699218-16.84375 37.546875-37.546875 37.546875zm0-61.441407c-13.171875 0-23.890625 10.722657-23.890625 23.894532s10.71875 23.890625 23.890625 23.890625 23.894531-10.71875 23.894531-23.890625-10.722656-23.894532-23.894531-23.894532zm0 0" fill="#0e65e5"/>
    <path d="m109.621094 153.601562c0 9.425782-7.644532 17.066407-17.070313 17.066407s-17.066406-7.640625-17.066406-17.066407c0-9.425781 7.640625-17.066406 17.066406-17.066406s17.070313 7.640625 17.070313 17.066406zm0 0" fill="#fff"/>
    <path d="m92.550781 177.492188c-13.171875 0-23.890625-10.71875-23.890625-23.890626 0-13.171874 10.71875-23.894531 23.890625-23.894531s23.894531 10.722657 23.894531 23.894531c0 13.171876-10.722656 23.890626-23.894531 23.890626zm0-34.132813c-5.644531 0-10.238281 4.59375-10.238281 10.242187 0 5.644532 4.59375 10.238282 10.238281 10.238282 5.648438 0 10.242188-4.59375 10.242188-10.238282 0-5.648437-4.59375-10.242187-10.242188-10.242187zm0 0" fill="#0e65e5"/>
    <path d="m53.679688 77c-1.515626 0-3.042969-.496094-4.304688-1.527344-2.925781-2.378906-3.367188-6.679687-.992188-9.601562 15.457032-19 35.933594-32.828125 59.226563-39.988282 3.597656-1.089843 7.421875.910157 8.53125 4.519532 1.105469 3.605468-.917969 7.425781-4.519531 8.535156-20.691406 6.359375-38.898438 18.652344-52.640625 35.542969-1.351563 1.660156-3.320313 2.519531-5.300781 2.519531zm0 0" fill="#fff"/>
    <path d="m239.324219 354.988281c-3.765625 0-6.824219-3.058593-6.824219-6.828125v-27.308594c0-3.765624 3.058594-6.824218 6.824219-6.824218 3.769531 0 6.828125 3.058594 6.828125 6.824218v27.308594c0 3.773438-3.058594 6.828125-6.828125 6.828125zm0 0" fill="#fff"/>
    <path d="m252.980469 341.332031h-27.308594c-3.769531 0-6.824219-3.058593-6.824219-6.824219 0-3.769531 3.054688-6.828124 6.824219-6.828124h27.308594c3.765625 0 6.824219 3.058593 6.824219 6.828124 0 3.765626-3.058594 6.824219-6.824219 6.824219zm0 0" fill="#fff"/>
</svg>
